<svg version="1.2" xmlns="http://www.w3.org/2000/svg" viewBox="0 0 1200 675" width="1200" height="675">
	<style>
		tspan { white-space:pre } 
		.s0 { fill: #0a1628 } 
		.s1 { fill: #142238;stroke: #2a3544;stroke-width: 2 } 
		.s2 { fill: #e85d5d } 
		.s3 { opacity: .8;fill: #e85d5d } 
		.s4 { opacity: .9;fill: #e85d5d } 
		.s5 { opacity: .6;fill: #000000;stroke: #e85d5d;stroke-width: 2 } 
		.s6 { opacity: .44;fill: #e85d5d } 
		.s7 { fill: none;stroke: #e85d5d;stroke-width: 2 } 
		.t8 { font-size: 42px;fill: #e8eaed;font-family: "Arial" } 
		.t9 { font-size: 22px;fill: #5b9fd4;font-family: "Arial" } 
	</style>
	<path fill-rule="evenodd" class="s0" d="m0 0h1200v675h-1200z"/>
	<path fill-rule="evenodd" class="s1" d="m600 560c-121.66 0-220-98.34-220-220 0-121.66 98.34-220 220-220 121.66 0 220 98.34 220 220 0 121.66-98.34 220-220 220z"/>
	<path fill-rule="evenodd" class="s2" d="m520 308c-4.42 0-8-3.58-8-8 0-4.42 3.58-8 8-8 4.42 0 8 3.58 8 8 0 4.42-3.58 8-8 8z"/>
	<path fill-rule="evenodd" class="s3" d="m640 286c-3.32 0-6-2.68-6-6 0-3.32 2.68-6 6-6 3.32 0 6 2.68 6 6 0 3.32-2.68 6-6 6z"/>
	<path fill-rule="evenodd" class="s4" d="m580 390c-5.53 0-10-4.47-10-10 0-5.53 4.47-10 10-10 5.53 0 10 4.47 10 10 0 5.53-4.47 10-10 10z"/>
	<path fill-rule="evenodd" class="s5" d="m569 328l199.46-127.83"/>
	<path id="Layer 1" class="s6" d="m491.44 287.31l88.94 131.13c0 0 84.89-144.12 90.93-156.5z"/>
	<path id="Layer 1 copy" class="s7" d="m491.44 287.31l88.94 131.13c0 0 84.89-144.12 90.93-156.5z"/>
	<text id="Iron Sight" transform="translate(80,80)">
		<tspan x="0" y="0" class="t8">Iron Sight
</tspan>
	</text>
	<text id="Real-time alert map, clustering, archive" transform="translate(80,125)">
		<tspan x="0" y="0" class="t9">Real-time alert map, clustering, archive
</tspan>
	</text>
</svg>